
Click To Enlarge 


-: Cover :-

 
http://desibbrg.org/images/08251124627786338182.jpg

-: Screens :-



    	http://desibbrg.org/images/15630644110804264258.png

    	http://desibbrg.org/images/95102292475941787656.png

    	http://desibbrg.org/images/47123375031592783453.png

    	http://desibbrg.org/images/23944607166010042045.png

    	http://desibbrg.org/images/47089412127213003977.png

    	http://desibbrg.org/images/23967045463308810998.png

    	http://desibbrg.org/images/83366773089841050014.png

    	http://desibbrg.org/images/80580346508877632663.png

    	http://desibbrg.org/images/40616589345288782416.png





-: Info :-


General
Complete name                    : D:dadaBombay.Talkies.2013.DVDScr.XviD.AC3.2CD.DVDrip.RRG.DADA.DBBians.ComBombay.Talkies.2013.DVDScr.XviD.AC3.2CD.DVDrip.RRG.DADA.DBBians.Com.avi
Format                           : AVI
Format/Info                      : Audio Video Interleave
File size                        : 1.45 GiB
Duration                         : 2h 6mn
Overall bit rate                 : 1 641 Kbps
Movie name                       : Bombay Talkies - DVDScr - XviD - AC3 [DDR]
Writing application              : VirtualDubMod 1.5.10.2 (build 2540/release)
Writing library                  : VirtualDubMod build 2540/release

Video
ID                               : 0
Format                           : MPEG-4 Visual
Format profile                   : Advanced Simple@L5
Format settings, BVOP            : Yes
Format settings, QPel            : No
Format settings, GMC             : No warppoints
Format settings, Matrix          : Default (MPEG)
Codec ID                         : XVID
Codec ID/Hint                    : XviD
Duration                         : 2h 6mn
Bit rate                         : 1 440 Kbps
Width                            : 720 pixels
Height                           : 304 pixels
Display aspect ratio             : 2.35:1
Frame rate                       : 25.000 fps
Color space                      : YUV
Chroma subsampling               : 4:2:0
Bit depth                        : 8 bits
Scan type                        : Progressive
Bits/(Pixel*Frame)               : 0.263
Stream size                      : 1.27 GiB (88%)
Writing library                  : XviD 1.2.1 (UTC 2008-12-04)

Audio
ID                               : 1
Format                           : AC-3
Format/Info                      : Audio Coding 3
Mode extension                   : CM (complete main)
Codec ID                         : 2000
Duration                         : 2h 6mn
Bit rate mode                    : Constant
Bit rate                         : 192 Kbps
Channel(s)                       : 2 channels
Channel positions                : Front: L R
Sampling rate                    : 48.0 KHz
Bit depth                        : 16 bits
Stream size                      : 174 MiB (12%)
Alignment                        : Split accross interleaves
Interleave, duration             : 40 ms (1.00 video frame)
Interleave, preload duration     : 500 ms



 
http://www.imdb.com/title/tt2797242/


Directed by
Zoya Akhtar	 	
Dibakar Banerjee	 	
Karan Johar	 	
Anurag Kashyap	 	
 
Cast (in alphabetical order)

	Farhan Akhtar	... 	Special appearance
	Sadashiv Amrapurkar		

	Amitabh Bachchan		

	Vidya Balan	... 	Special Appearance

	Juhi Chawla	... 	Special appearance
	Madhuri Dixit	... 	Special Appearance

	Randeep Hooda		

	Katrina Kaif		

	Anil Kapoor	... 	Special Appearance

	Kareena Kapoor	... 	Special Appearance

	Karisma Kapoor	... 	Special Appearance

	Ranbir Kapoor	... 	Narrator (voice)

	Aamir Khan	... 	(rumored)

	Imran Khan	... 	Special Appearance

	Saif Ali Khan	... 	Special Appearance

	Rani Mukerji		
	Saqib Saleem		

	Nawazuddin Siddiqui		

	Ranveer Singh	... 	Special Appearance

	Sridevi	... 	Special Appearance

One hundred years of Hindi cinema is celebrated in four short stories showcasing the power of film. 